<?xml version="1.0" encoding="utf-8"?>
<!-- Generator: Adobe Illustrator 23.1.0, SVG Export Plug-In . SVG Version: 6.00 Build 0)  -->
<svg version="1.1" id="Слой_1" xmlns="http://www.w3.org/2000/svg" xmlns:xlink="http://www.w3.org/1999/xlink" x="0px" y="0px"
	 viewBox="0 0 2000 2000" style="enable-background:new 0 0 2000 2000;" xml:space="preserve">
<style type="text/css">
	.st0{fill:#8B4012;}
	.st1{fill:#FCFAF7;}
	.st2{fill:#9C4812;}
	.st3{fill:#CB601A;}
	.st4{fill:#FDFDFD;}
	.st5{fill:#C7EEE2;}
	.st6{fill:#FCC68F;}
	.st7{fill:#D77002;}
	.st8{fill:#F9B338;}
	.st9{fill:#F3991B;}
	.st10{fill:#E49A5A;}
	.st11{fill:#9D4913;}
	.st12{fill:#C82D21;}
</style>
<path class="st0" d="M1541,1474.6c108.7,1.9,98.1-10.8,95.2,29.6c-2.5,3.2-6.5,2.3-11.4,2.4c-44.6-0.2-86,0.2-130.8-0.1
	c-6.8-0.6-6.6-7.4-6.8-13.6c-0.9-16.7,8.4-24.8,20.5-34.3c11-9.2,21.3-18.2,32.1-27.7c12.9-11.6,26.4-23.5,38.6-34.5
	c0.4-1.5,11.3-10,4.6-8.9c-27.9-1.7-54.8,0.5-84.5-0.9c-7.8-1.2-5-23.6-4.2-26.8c2-5.2,7.7-5.2,22.1-5.2c35.4,0,71.6,0.2,107.2-0.2
	c2.9-0.1,7.1,0.2,8.8,1.6c6.5,6.1,3.5,21.7,0.2,28.5c-5,10.2-16.3,17.1-24.5,24.9c-19.8,17.5-38.6,35.3-58,53.3
	C1545.8,1466.4,1544.9,1468.1,1541,1474.6z"/>
<path class="st0" d="M1366.8,1474.6c31.7,0.4,61.1-0.9,92.3,0.6c4.7-0.9,4.8,17.9,3.2,28.7c-0.8,2-2.6,2.4-6.2,2.7
	c-35.6,0.3-65.5,0-99,0.1c-22.8-2-45.9,7.4-42.7-12.1c0-9.1-1.6-17.9,6.6-23.9c68.8-63.3,104.2-85.4,82.7-83.3
	c-93.6-2.8-85.2,10.2-83.5-26.3c0.9-3.7,3-5.1,7.4-5.8c53.3,0,131.6-2.9,131.8,1.9c10.8,25.9-12.3,41.3-27.2,54.4
	c-19.3,17.2-37.8,34.6-56.9,52.2C1371.3,1467.1,1370.5,1468.4,1366.8,1474.6z"/>
<path class="st0" d="M1667.3,1506.6c10.4-32.6,26.5-63.3,39-95.3c6.9-13.1,20.1-57.3,28.4-56.6c11.9,0.5,29.4-2,33.2,2.5
	c12.1,22.9,20.2,47.5,30.9,70.9c6.2,17.1,37.4,81.4,30.2,78.2c-44.1,1.3-26.8-2-40.9-19.1c-3.4-3.1-7.8-4.3-13.5-4.5
	c-21.4,1.6-39.7-0.3-60.2,0.8c-7.6,0.7-6.5,12.3-11.1,17.3C1695.4,1511.2,1680.4,1505.2,1667.3,1506.6z M1723.7,1453
	c65.2-0.4,50.9,7.2,38.2-30.2c-4.7-8.3-12.2-38.2-18.1-17.1C1737.3,1420.9,1731,1435.7,1723.7,1453z"/>
<path class="st0" d="M932.3,1354.7c17.1,0,17.2,0.2,23.8,16.3c60.2,146.4,64.4,134.6,44.2,135.6c-9.3,0-20.4,0.7-22.6-4.2
	c-3.5-4.1-5.9-17.4-12-18.7c-23-1.7-44.5,0.2-67.8-0.5c-12,0.2-8.4,18.7-18.1,21.5c-5.3,3.2-15,2.4-25,1.6c-5.1-0.6-5.9-1.7-4.4-6.4
	C915,1349.4,902.8,1353.3,932.3,1354.7z M905.6,1452.4c62.2-1.1,50,7.3,41.2-21.5c-4.4-8.1-15.5-47.5-21-26
	C919.2,1420.5,912.8,1435.4,905.6,1452.4z"/>
<path class="st0" d="M1128.6,1473c-1.5,29.4,6.2,33.7-14.1,34c-10.8,0.8-15.5,0.5-18.2-3c-5.7-18.4-1-51.7-2.5-71.8
	c1.1-18.9-2.8-76.4,2.7-76.5c34.8-2.1,83-5.5,102.2,11.8c30.3,27,26.1,76.8-5.8,96.2C1174.1,1476.4,1150.7,1472.4,1128.6,1473z
	 M1129.8,1439.7c14.9-1.1,31,3.2,44.4-2.9c15.4-9.5,12.2-45.1-4.9-47.8c-10.8-0.6-39.7-2.8-39.6,0.9
	C1129.8,1407,1129.8,1422.8,1129.8,1439.7z"/>
<path class="st0" d="M508.8,1352.7c101.7,6.3,101.4,149,3.6,156c-47.7,2.7-84.3-38.5-80.4-86.3C436,1384.8,471,1353.1,508.8,1352.7z
	 M509.2,1384.8c-15.7-2.1-30.3,7-38.7,19.9c-22.6,33.9,5.6,76.5,42.5,72.9C572.5,1470.2,566.4,1383.9,509.2,1384.8z"/>
<path class="st0" d="M706.8,1354.9c36.5,0.6,35.2-4.4,45.6,12.8c12.9,17.8,29.5,49.8,35.2,48.3c11.2-8.5,18.8-27.4,27.3-38.3
	c7.4-10,11.5-25.7,26.7-22.9c7.2,1.1,21-2.3,22.1,3.2c-14.5,30.1-38,54.9-55.2,83.7c-12.8,21,5,66.2-13,65.1
	c-51,6.3-7.8-28.3-37.4-76.7C740,1404.3,722.3,1381.9,706.8,1354.9z"/>
<path class="st0" d="M279.6,1354.8c18.8,0.5,36-4.9,45.2,13.2c12.2,15.9,29.9,51.2,35.9,47.7c9.6-7.8,15.7-22.9,22.8-32.2
	c16.2-24.4,15.4-30.2,39.2-28.7c5,0.1,9.8,0.2,15.7,0.2c-0.4,0.6-0.4,0.9-1.3,2.6c-60.5,98.2-62.9,70-60.5,141.9
	c-0.2,3.2-1,5.1-3,6.5c-7.5,1.6-28.7,1.8-30.2-1.9c-6-20,4.5-44.7-6.6-63.5C318.3,1411.4,297.3,1384.7,279.6,1354.8z"/>
<path class="st0" d="M611.1,1430.7c1.1-79.3-7.9-76.6,27.7-76.1c3.3,0.1,5.2,1.1,6.3,3.6c2.8,38.8-2,76.6,1.7,114.6
	c1.8,2,4,1.9,7.8,1.9c82.7,1,70-6.9,70.9,19.7c-0.4,8.8-2,11.1-9.2,11.9c-38.7-0.2-67.1,2.1-101.6-0.9c-5.1-2.2-3-15.3-3.5-22.4
	C611,1465.2,611.4,1448.2,611.1,1430.7z"/>
<path class="st0" d="M218.3,1474.6c48.7,1.5,80.9-4.5,79.7,5.8c0.7,7.7,0.7,22.2-1.6,23.7c-1.3,1.6-3.6,2.1-7.5,2.4
	c-37.6,0.3-61,0.2-96.7,0c-6.9-0.3-7.2-2.1-7.3-10.6c0.3-45.4-0.6-89.1,0.2-135.6c1.1-8.4,10.3-5.2,17.7-5.3
	c5,0.2,12.4-2.3,14.6,2.4C219.9,1396.7,217.4,1434.4,218.3,1474.6z"/>
<path class="st0" d="M1283.8,1431.7c-2.1,81.1,11.6,78-32.3,73.5c-2.9-2.4-2.3-4.6-2.4-9.2c0.1-32.5,0.1-63.1,0.1-95.2
	c1.5-47.9-9.3-48.6,31.6-45.4c5.4,4,2.3,14.5,3.1,21.7C1283.7,1395.5,1283.8,1413.3,1283.8,1431.7z"/>
<path class="st1" d="M954.8,1452.4"/>
<path class="st2" d="M553.2,855.1c0,0,0-0.1,0-0.1c20.7-219.3,95.2-299.9,227.6-388c2.7-3.1-2.4-6.6-8.4-11.3c0,0-0.1,0-0.1-0.1
	c-101.4-89.1,5.9-240.3,126.4-196.1c0.1,0,0.1,0,0.2,0.1c9.5,2.3,14.7-6.9,22.2-12.9c23.9-20.7,51.4-31.6,83.4-31.8
	c80.8,1.8,89.8,54.1,109.8,43.7c0.1,0,0.1-0.1,0.2-0.1c20.8-7.4,43.1-8.6,63.8-4.4c95.8,18.9,134.9,139.2,58.8,202.2
	c-5.9,4.5-12.6,8.5-5.2,13.1c158.8,93.8,242.1,272.1,218.7,446.1c-27.2,203.7-188.2,359.6-387.7,387.7
	C789.8,1337.3,559,1125.8,553.2,855.1z M1174.8,304.3c-22.8-1.7-43.5,1.8-61.6,16.8c-0.1,0.1-0.2,0.1-0.2,0.2
	c-4.8,5.5-2.3,12.4-5.8,19.3c-13,23.3-8.6,20.5-12.4,24.8c-1,1.1-2.7,0.5-2.9-0.9c-12.1-99.1-101.9-108.6-141.7-67.2
	c-0.1,0.1-0.1,0.1-0.1,0.2c-8.9,12.1-22.1,18.6-14.1,33.7c0,0.1,0.1,0.2,0.1,0.3c4.4,13.1,4.7,22.9,3.9,33.4
	c-0.1,1.6-2.3,2.1-3.1,0.7c-1.9-3.2-3.9-6.7-5.8-9.8c-8.3-14.3-33.7-40.2-41-42.6c-53-23.6-110.4-1.7-124.5,56.1
	c-10.6,40.7,9.1,80.6,42.4,104.6c0.3,0.2,0.7,0.5,1,0.7c0.7,0.6,1.8,0.8-0.3,0.9c-8.5-0.3-14.2,4.6-21.7,8.5
	c-107.4,63.8-185.7,173.9-207.2,297.2c-26.1,159.7,26.9,295.9,140.3,400c133.1,116.4,313.5,136.9,466,68.2
	c324.4-155.2,333.6-596.6,27-771.3c-2.7-1.4-5.5-2.3-8.7-2.6c-1.5-0.2-2.1-2-0.9-2.9c8.5-6.8,17.4-13.9,23.7-22.9
	c40.4-52.5,17.2-133.9-52.2-145.2C1174.9,304.3,1174.9,304.3,1174.8,304.3z"/>
<path class="st3" d="M812.2,477.2c3.5,1.8,14.2,11.1,3.6,19.8c-9.3,3.5-16.3,8.7-24.8,14.5c-94,56.3-167.8,162.1-183.6,255.4
	c-24.7,99.8-7,204.7,42.6,292c36.5,63.5,69.9,92.8,114.9,126.8c77.9,58.9,181.7,86,271.6,76.8c311.3-24.6,474.9-371.8,309.5-625.5
	c-39.2-57.9-88.7-109.2-152.2-139.3c-2.4-0.8-2.7-0.9-2.6-4c0-5-0.8-8.5,2.8-13c6.9-14.3,25.5,2.8,32.7,7.1
	c179.6,106.8,250.3,325.3,184.4,514.3c-65.3,181.5-243.4,298.6-431.2,285.3c-111.6-1.4-231.5-60.9-293.8-139.9
	c-123.7-119.1-153.3-351.6-56.2-505.3c32-55,75.8-102.3,127.2-139.2C770.8,494,803.4,469.2,812.2,477.2z"/>
<path class="st4" d="M1117.6,318.3c16.1-12.1,40.4-16,59.1-11.6c10,11,23.6,20.4,29.3,34.4c9.9,24.3,15.6,59.1,3.2,79.1
	c-11.9,26.3-36,41.9-57.6,59.8c-7,19.9-8.7,41.5-13.8,62c-41.7,185.4-21.7,151.7-65.6,169c0-67.5,0-133.5,0-199
	c-0.1-10.1,0-10.6-0.4-9.1c0.4,5.5,0.4,2.1,0.4-1.5c-15.7,72.3-23.8,137.6-32.9,212.4c-0.8,11.4-45.2,11.2-55.1,13.6
	c-6.6,2.2-4.7-3.5-6-8.8c-7.6-50.3-14.7-97.5-22-146.2c-1.4-3.1,0.6-11.7-3.8-10.4c-2.5,0-0.6,3.7-1.1,6.3c0,28.1,0,55,0,82.9
	c-1.2,18.5,3.1,76.8-2.9,77.3c-14.3,2.3-27.3,0.5-41.3,1.6c-28.6,4.3-23.6-12-29.4-30.6c-17.2-72-38.8-142.5-61.1-212.9
	c-3.1-5.7-3-8.6-8.5-11.3c-23.8-16.8-41.2-42.3-45.4-69.4c-9-68.4,50.8-117.8,112.2-96.7c53.5,25.4,54.7,50,64.3,76.8
	c0.9,3.9,0.3-8.5,0.5-10.2c1.6-19.5-4.5-38.1-3.5-57.7c15.3-40.6,69.8-53.5,106.5-34c25.6,11.1,47.5,50.8,45.3,74.2
	c0.8,4.1-2.3,21.7,3.2,16.1c5.8-11.5,11.6-21.6,15.6-34.4C1110.1,331.7,1107.2,322.7,1117.6,318.3z"/>
<path class="st5" d="M1197,477c-25.2,60.1-40.9,129.6-59.7,194.2c-5.4,14.8-10.4,59.2-22.1,60.7c-69.4,18.3-143.7,21.3-213,2.6
	c-4.2-1.6-7.7-3.1-12-4.7c7.2-0.3,15.5-0.4,22.9-0.7c20.1-1.9,39.9,4.2,38.1-9.1c-0.1-51.1-0.1-101.5,0-152.6c0-1.6,0-2.8,0-4.7
	c0.3-0.9-0.8-1.9,1.1-1.7c2.5-0.3,2.3-0.6,2.7,2.8c30.8,195.1,17,160.3,39.7,161.3c13.3-2.1,39.5-2.8,43.5-10.1
	c10.4-71.3,17.5-142.2,33.1-211.7c1.2-5.9,0.6-0.3,0.7,3.1c0,52.8,0,103.5,0,156.9c0,15.5,0,30.9,0,46.6c1.7-0.7,4.4-1.4,6.5-2.3
	c14.6-5,25.1-5.1,28.6-22.5c12.8-65.4,28-129.1,40.8-194.2c0.7-8.2,3.8-13.9,11.3-18.5c12.3-9.9,24.8-18.3,34.8-30.4
	c10.9-13.7,21.2-29.5,22.4-47.6c-1.2-22.6-3.9-47.9-17.7-66c-1.7-5.5-46.9-27.4-18.6-22.2c26.3,4.8,43.1,19.9,56,43.5
	C1261.2,399.1,1242.8,454.1,1197,477z"/>
<path class="st6" d="M939.6,357.7c0,8.8,0,18.8,0,29.9c-3.3-10.7-10.9-29.8-11.2-33.5C941.4,375.3,937.5,373.6,939.6,357.7z"/>
<path class="st6" d="M1098,360.9c-2.5,5-5.1,10-7.6,14.9c-0.8-0.3-2.5-19-2.5-28c1.1,6.8,2.2,13.6,3.3,21
	C1093.6,366.2,1095.8,363.6,1098,360.9z"/>
<path class="st6" d="M939.9,310.6c-6.3,8.5-3.5,17.9-2.7,27.2C930.2,321.5,930.6,320.2,939.9,310.6z"/>
<path class="st6" d="M903.2,325.8c-8-5.1-16.1-10.2-24.1-15.3C888.6,313.4,897.6,316.9,903.2,325.8z"/>
<path class="st6" d="M1074.1,313.2c-4.7-5.7-9.4-11.5-14.2-17.2C1064.7,301.7,1069.4,307.4,1074.1,313.2z"/>
<path class="st6" d="M800.6,317.6L800.6,317.6z"/>
<path class="st6" d="M1152.7,304.8c-6,1.5-12,3-18,4.5C1140.7,307.8,1146.7,306.3,1152.7,304.8z"/>
<path class="st6" d="M1108.3,335.7c-2.1,5.8-4.2,11.7-6.3,17.5C1104.1,347.4,1106.2,341.5,1108.3,335.7z"/>
<path class="st6" d="M1082,329.2c-2.4-4.9-4.9-9.7-7.3-14.6C1077.1,319.5,1079.5,324.4,1082,329.2z"/>
<path class="st6" d="M1010.9,275.6c-4.6,0-9.2,0-13.8,0C1001.7,275.6,1006.3,275.6,1010.9,275.6z"/>
<path class="st6" d="M937.3,340.3c0.6,4.2,1.2,8.4,1.7,12.6C938.5,348.7,937.9,344.5,937.3,340.3z"/>
<path class="st6" d="M867.8,307.1c-3.7-0.7-7.3-1.4-11-2.1C860.5,305.7,864.2,306.4,867.8,307.1z"/>
<path class="st6" d="M1087.5,345.1c-1.5-4.4-2.9-8.8-4.4-13.1C1084.5,336.3,1086,340.7,1087.5,345.1z"/>
<path class="st6" d="M978.7,279.1c-3.5,1.5-6.9,3.1-10.3,4.6C971.8,282.1,975.2,280.6,978.7,279.1z"/>
<path class="st6" d="M1041.3,283.6c-3.5-1.5-6.9-3-10.4-4.5C1034.4,280.6,1037.8,282.1,1041.3,283.6z"/>
<path class="st6" d="M825,307.1L825,307.1z"/>
<path class="st6" d="M1027.9,278.2c-2.6-0.6-5.2-1.3-7.8-1.9C1022.7,276.9,1025.3,277.6,1027.9,278.2z"/>
<path class="st6" d="M923.5,346.9c-1.9-2.2-3.8-4.4-5.7-6.6C919.8,342.4,921.7,344.6,923.5,346.9z"/>
<path class="st6" d="M989.5,276.4c-2.6,0.7-5.1,1.4-7.7,2C984.3,277.7,986.9,277,989.5,276.4z"/>
<path class="st6" d="M1111.2,323c-0.8,2.1-1.6,4.3-2.4,6.4C1109.6,327.2,1110.4,325.1,1111.2,323z"/>
<path class="st6" d="M1130.6,310.7c-2.3,1.2-4.6,2.4-6.9,3.6C1126,313.1,1128.3,311.9,1130.6,310.7z"/>
<path class="st6" d="M1050.7,288.7c-2.2-1.3-4.5-2.7-6.7-4C1046.2,286.1,1048.4,287.4,1050.7,288.7z"/>
<path class="st6" d="M926.8,351.6c-0.8-1.1-1.7-2.3-2.5-3.4C925.2,349.3,926,350.5,926.8,351.6z"/>
<path class="st6" d="M1117.6,318.3c-1.2,0.7-2.4,1.5-3.7,2.2C1115.2,319.8,1116.4,319,1117.6,318.3z"/>
<path class="st6" d="M799.3,318.4c-1.1,0.9-2.2,1.7-3.3,2.6C797.1,320.1,798.2,319.3,799.3,318.4z"/>
<path class="st6" d="M874.8,309.4c-1.3-0.5-2.5-1.1-3.8-1.6C872.2,308.3,873.5,308.8,874.8,309.4z"/>
<path class="st6" d="M944.4,303.3c-0.8,1.2-1.7,2.3-2.5,3.5C942.7,305.6,943.5,304.5,944.4,303.3z"/>
<path class="st6" d="M952.9,294.4c-1,0.9-1.9,1.9-2.9,2.8C951,296.3,951.9,295.4,952.9,294.4z"/>
<path class="st6" d="M1055.3,292.1c-1.1-0.9-2.2-1.8-3.3-2.7C1053.1,290.3,1054.2,291.3,1055.3,292.1z"/>
<path class="st6" d="M959.3,289.6c-1.2,0.8-2.3,1.6-3.5,2.4C956.9,291.2,958.1,290.4,959.3,289.6z"/>
<path class="st6" d="M964,286.2c-1.1,0.9-2.3,1.7-3.4,2.6C961.7,287.9,962.8,287.1,964,286.2z"/>
<path class="st5" d="M1170.4,305.3c1.2,0,2.3,0,3.5,0C1173.8,305.8,1171.5,305.8,1170.4,305.3z"/>
<path class="st6" d="M1173.9,305.3L1173.9,305.3z"/>
<path class="st2" d="M890.3,730.8c69.5,26.9,167.1,18.1,224.9,2.1c7.2-2.5,8.8-8.8,10.8-16.8c20.7-77.9,38.3-154.4,65.2-229.9
	c-0.1,6.2,0.3,11.9-0.9,18.6c-12,144.6-31.2,210.2-29.2,245.5c1.3,13.5,5.3,26.1,7.3,39.7c-0.2,4,4.5,5.4,4.4,9.7
	c-2.1,17.4,6.8,33.3,10.3,50.2c2.5,5.2,4.8,24.9,8,22.6c7.5-3.8,13.9-7.6,15.7-17.1c5.4-16.1,7.2-31.7,4.2-48.5
	c-1.7-30.7-43.1-1.3-37.1-10.8c17.4-29,46.7-26.7,58,4.1c10.1,32.4-4.5,85.7-37.6,84.8c-4.3-0.8-3.6,0.3-4,4.2
	c-2.7,27.7-3.7,53.4-15.1,78.3c-32,72.2-105.4,115.5-180.5,111.2c-103.1-4.5-179.2-88.9-176.7-189.8c0.4-4.7,0.6-5.4-4.8-4.3
	c-37.2,2.3-48.1-64-36.4-88c14.6-34.3,49.1-21.1,58,2.8c-0.8,1.4-1.4,1.3-3.6,0.2c-8.7-3-16.3-8.4-25.3-7.1
	c-20,7.5-7.9,64.9-1.4,72.1c0.9,2.2,14.2,15,14.1,7.7c14.5-40,19-81.2,28.9-123.2c-3.1-53.9-16.2-107.7-21.2-161.8
	c-3.1-33.8-12.9-81.3-8.1-96.5c13.8,46.6,27.9,93.8,41.5,140.6C874,672.9,879.3,726.2,890.3,730.8z M978.4,1042.5
	c117.1,17.3,207.9-83.6,193.7-192.3c-9.6-22.9-24.9-41.8-36.8-63.2c-2.7-4.3-5.1-8.1-7.9-12.6c-2.1-2.3-1.5-1.8-3-2
	c4.7,0.5-24,7.9-36.4,10.5c-67,11.8-138.6,11.3-202-9.6c-2-0.7-4.7,0.7-6,1.7c-0.9,0.7-0.6,0.3-0.9,2.1
	c-9.1,10.2-14.8,24.7-22.5,36.3c-23.7,35.8-24.2,42.9-21.2,77.4C842.1,965.3,902.2,1032.9,978.4,1042.5z"/>
<path class="st2" d="M812,477.9c-1.1-0.6-2.1-1.2-3.2-1.8C809.9,476.8,810.9,477.3,812,477.9z"/>
<path class="st7" d="M1189.7,523.1c-0.3-0.1-0.4-0.4-0.3-0.6c2.2-10.1,0.7-25.8,4.1-24.6c13.7,6.4,25.8,12.6,38.1,21.7
	c54.5,35.5,95.3,85.1,129.1,139.5c22.1,39.5,36.1,83.2,45.7,127.2c38.3,227.9-112.1,434.5-332,472.8
	c-106.2,18.2-218.8,0.7-304.8-69.7c-0.1-0.1-0.3-0.2-0.5-0.1c-5.3,1.6-69.5-48.9-96.5-95.4c0,0,0,0,0,0
	c-68.7-97.1-92-218.5-63.2-332c19.3-100.6,100.2-198.4,176.3-245.7C823,493,818,486,819.2,519.7c0.1,2.7,1.1,2.8-2,3.7
	c-6.3,1.9-11.1,6.1-17.1,9.4c0,0,0,0,0,0C571,680.3,582.1,969.3,715.3,1108c0,0,0,0,0,0c25,31,39.6,44,66.1,62.8
	c47.2,34.2,92.8,51.5,154.9,65.8c4.5,1.2,6.4,1.7,8.4,0.8c0.1,0,0.2-0.1,0.2-0.2c13.7-15.9,24.7-42.2,37-60.5c0-0.1,0.1-0.1,0.1-0.1
	c8.9-7.4,14.4-0.5,13.4,7.4c0,0.1,0,0.2-0.1,0.3c-2,3.2-4.3,6.2-5.5,11.1c0,0,0,0,0,0c-10.8,33.7-23.1,47.8-6.9,47.2
	c19.4,0.1,33.7-0.1,50.7,0c0,0,0.1,0,0.1,0c2.7-0.5,2.8,0,2.4-1.5c-1.6,1.5-0.8,1.5,0.4,1.5c-6.6-21.3-11.2-36.6-16.9-55.5
	c-1.2-3.9-2.2-7.4-3.4-11.3c-0.1-0.2,0-0.5,0.2-0.6c3.1-2.6,6.3-3.3,8.6-1.9c0.1,0,0.1,0.1,0.2,0.2c14,19.4,21.3,37.1,34.8,58.7
	c4.4,7,6.5,6.6,17.3,3.7c49.4-10.8,89.3-25.3,129.1-50.4c26.5-16.9,62.4-42.1,78.8-66.7c0,0,0.1-0.1,0.1-0.1
	c21.7-19.4,37.6-43.1,52.2-67.9c42.2-73.4,47.3-125.8,52.7-193.8c0,0,0,0,0,0c0.2-10.1-12.8-99-26.2-135.6
	C1336.2,642,1261.4,553.1,1189.7,523.1z"/>
<path class="st2" d="M1196.2,477.9c1-0.6,2-1.2,3-1.8C1198.2,476.8,1197.2,477.4,1196.2,477.9z"/>
<path class="st6" d="M965.1,1040c-84-18.1-141.8-105.3-128.8-189.3c2.5-10.6,9.4-18.9,15-28.4c9.4-14.8,16.6-29.8,26.4-44
	c3.5-3.3,12.8,4.1,16.7,4.4c163.3,56.8,224.6-23.4,232.6,4.8c10.2,26.6,26.9,52.2,33.5,80c-1.5,24.5-12.1,47.8-20.8,70.1
	C1112,1004.5,1036.5,1060.6,965.1,1040z M964,844.3c-26.7-20.7-63.5-14.5-71.2,13.4c25.7-9.9,50.8-12.2,75.7,0.2
	c3.7,5.9,8.3,11.5,10.7,17.9c1.8,5,0.7,11,0.9,16.5c0.3,10.8,3.8,20.2,10.8,29.1c-0.5-16.3-0.7-31.5-1.4-46.6
	C989,862.3,976,847.2,964,844.3z M1029.8,863.7c-8.6,46.5,9.3,65.3-25.9,63.9c-9.7,0.3-10-0.1-9.1,1c5.8-1.1,3-1.1-0.9-1.2
	c16.8,28.6,60.8,21.8,60.4-10.3c-1.9-14.1-10.6-25.3-14.8-39.2C1036.9,874.7,1031.8,848.4,1029.8,863.7z M1066.5,1006
	c13.2-7.8,29.4-37.7,20.6-30.3c-56.2,32.6-108.8,29.4-163.9-2.3c-4.5-2.7,5.8,13.4,7.1,15.5c6.7,17.8,22.6,30.1,39.4,36.1
	C1014.7,1039.1,1037.2,1027.4,1066.5,1006z M1108,949.2c-21.9,11.8-40.5-4.5-61.9-2.1c-40.4,0.8-30.9,30-16.8,32.8
	c3.8,0.6,7.4-0.2,11.6-2.1C1063.4,962.5,1105.7,975.6,1108,949.2z M907.4,946.5c0.2,20.9,19.3,20.2,33.9,21.4
	c13.4,1.5,24.3,4.9,36.8,11.7c22.2,6.1,26.5-27,5.6-30.2C943.8,938.8,922.4,967.6,907.4,946.5z M1115.5,858.5
	c-4.7-18.7-24.7-29.5-46.9-26.7c-15.3,1.9-29.8,14-29.6,25.5C1064.3,846.8,1089.5,846.5,1115.5,858.5z"/>
<path class="st8" d="M1188.3,522.9c67.6,28.3,130.5,104.2,158.2,160.4c31,60.8,38.3,120.9,43.5,175.7c-0.5,6.3-22.9-1.9-31,4
	c-9.6,12,2.5,58.9-26,38c-4-4.1-2.8-12.5-2-20c1.5-21.8-14.2-23.2-37.6-22.2c-4.1,0.2-6.4,0.7-8.3,2.1c-6,3.9,0.1,23.5-14.7,25
	c-7.3-1.4-2.7-10.8-4.4-18.2c-0.7-12.3-16.4-8.2-26.3-9.9c-10.6-1.3-10.7-0.8-10.3-2.2c6.6,1.9,3.5,1.7-0.4,1.4
	c3.8-13.9,6.5-26,5.9-39.1c-1.5-38.6-32.2-56-55.5-29.9c-2.7,3-4.8,6.3-6.8,10.1c0.2-0.3,0,0-0.5-1c-5.2-5.7-4.5-13-6.2-20.5
	c-2.4-11.8-5.7-23.2-5.2-35.2C1168,668.4,1184.1,596.5,1188.3,522.9z M1290.3,720.9c-21.1,19.7,16,48.1,33.6,24.4
	c5.7-6.9,1.4-17.5-3.3-26C1313,709,1295.9,710.7,1290.3,720.9z M1277.6,634c-1.7-32.7-46.1-29.1-45.8,0.5
	C1234.9,667.5,1280.9,659.9,1277.6,634z M1291.7,802.7c-23.3,1.3-20.5,28.8-0.3,30C1310.4,830.1,1311.5,804,1291.7,802.7z
	 M1233.3,696.9c-22.8,0.6-17.4,31.4,3.2,28.8C1255,723.1,1252.1,695.5,1233.3,696.9z M1341.8,796.3c23-5.7,2.1-25.1-4.5-21.5
	C1325.8,781.1,1330,797,1341.8,796.3z M1306.4,685.9c0.7-8.1-6.9-13.2-14.7-10.3C1272.8,687,1301.8,710.1,1306.4,685.9z
	 M1223.3,583.3c-0.4-10.5-20.7-10.1-19.4,2.6C1204.4,601,1224.7,599.5,1223.3,583.3z M1208.6,667.7c-9.5-10.9-10-6.2-17.2,1.1
	C1197.8,675.8,1206.4,682,1208.6,667.7z M1246.7,754.6c-5.9,9.2-8.2,13,0.8,17.1C1259.5,768.7,1253.6,761.8,1246.7,754.6z
	 M1211.6,768.1c13.1-1.1,10.7-13.2,15.3-20.4C1215.6,749.8,1217.6,761.9,1211.6,768.1z M1299.3,654c-0.4-0.8-0.9-1.5-1.4-2.3
	c-7.1,5.1-14.3,10.2-21.8,15.5C1284.4,670.9,1288.7,667.6,1299.3,654z"/>
<path class="st8" d="M621.7,810.7c13-109,74.9-207.8,163.9-268.9c35.6-23.2,32.8-23.4,34.4-6.8c8.1,69.5,18.3,137.2,27.9,206
	c0.7,11.6-4.6,24-6.2,36.1c-2.2,4.9-2.4,25.2-6.5,19.8c-14.4-20.1-30.7-29.5-49.2-14c-20.1,21.4-14.1,50.2-7.3,74
	c-8,2-26.5,0.6-32.2,3.4c-6.4,2.7-1.1,17-9.3,23.4c-3.3,4.1-7.7-0.8-9.7-5c-1.6-5.5,1.8-15.9-4.1-19.1c-5-2.4-11-0.4-16.5-0.9
	c-8.2,0.8-16-1.9-23.8,1.4c-10.1,8.4-1.8,32.1-8.2,39c-5.3,4.4-14.8,4.7-19.1-0.1c-4-3.9-1.4-8-0.3-13.3c1.2-8,0.8-17.2-3.9-21.8
	c-4.6-5.4-13.4-5.5-21.4-5.9c-4.3-1.5-11.5,1.7-10.5-4.2C620.4,838.9,619.1,825.7,621.7,810.7z M713,717.7
	c-17-26.3-49.7,6.1-30.8,26.3C700.7,762.1,730.6,736,713,717.7z M754.8,630c-21.6,21.3,7.8,51.4,29.8,33.4
	C811.1,630.1,765.1,611.8,754.8,630z M695.1,805.7c-26.5,1.5-22.6,33.1-1.2,35.3C719.1,840.8,720.9,806.5,695.1,805.7z M799,729.1
	c-22.6,2.1-18.2,28.4-0.1,30.2C819.9,757,820.2,730.2,799,729.1z M663,777.1c-15.7,0.6-12.6,18.3-1.2,20.7
	C676.3,798.1,678.9,777.6,663,777.1z M728.3,689.1c19-2.3,6.4-21.3-3.2-20.3C713.9,673.2,716.7,690.1,728.3,689.1z M804,698.2
	c1.2,15.9,21.3,10.8,20.4-1.7C821.3,684,802.9,685.4,804,698.2z M723.3,646.1c-1.6-5.2-12.5,5.8-16,6.8c-16.2,7.3-6.4,12.1,3.1,6
	C715.2,655.2,718,649.1,723.3,646.1z M752,780.1c-7.7-7.2-11.3-10.5-16.2-1.4C737.7,789.8,744.8,786.1,752,780.1z M753.4,782
	c10.4-1.5,12.6-4.8,14.4-20.8C756.1,763.9,760.8,777.1,753.4,782z M780.5,600.8c5.7-4.2,6.5-7.8,0.9-10.3
	C774.4,593.3,775.3,595.5,780.5,600.8z"/>
<path class="st9" d="M1229.2,857c10.1,1.5,22.6,0.1,32.6,3.2c9.9,3.7-1.7,29.8,11.8,25c3.4-2.6,7.6-3.7,7.6-11
	c1.6-16,2.9-15.5,21.5-15.6c9.7-0.6,22.3,1.2,26.1,7.5c10.3,12.7-9.1,33.8,14,37.4c17.2,0.4,5.4-32.6,13.5-41.2
	c5.9-6.5,17.2-2.9,25.4-3.9c3.5,0.9,9-2.6,7.4,3c-1.5,14.5-2.6,28.2-4.2,42.7c-5.2,73.1-50.3,169.8-96.9,210
	c-26.6-3.4-55-9.7-81.2-18.3c-16.6-24.3-25-54.2-40.8-79.6c-1.7-2.1-1.3-2.4-2.4-1.4c1.9,0.5,1.6-0.1,1.1-1
	c-5.4,5.1-9.4,8.8-13.6,12.7c-6.2,4.8-30,29-26.9,16.8c-1.5-5.9,1.2-8.5,5.7-12.6c70.4-71.6,52.1-112.9,62.3-146.2
	C1211.9,886.5,1220.8,872.4,1229.2,857z M1251.3,1005.8c-28.4,0.7-24.9,38.6,0.1,38.4C1276.2,1043,1275.2,1006.2,1251.3,1005.8z
	 M1311.2,955.3c0.5,17,23,18,26.7,3.4C1340.8,937.5,1311.7,933.9,1311.2,955.3z M1286.8,914.7c32.2-4.6-14.7-36.2-8.5-4.9
	C1279.5,913.4,1282,915.1,1286.8,914.7z M1223.2,943c1.7-11-14.1-12.2-15.8-3.4C1203.4,953.7,1224,955.5,1223.2,943z M1298.6,1020.8
	c-12.3,10.5-6.8,9.4,0,17C1308.5,1028.9,1307.4,1030,1298.6,1020.8z M1308.5,928.6c11,4.1,21-1.4,25.8-13.5
	C1321.5,912.4,1318.7,927.2,1308.5,928.6z M1203.1,987.6c2.6,8.9,11.7,11.2,24.5,4.5C1219.5,990.6,1211.5,989.1,1203.1,987.6z"/>
<path class="st9" d="M619.8,857.1c15.3,2.3,31.8-1,35.7,14c2.7,8.4-1.7,16.8-1.5,24.8c2.4,8.4,15.7,8.5,21.6,2.6
	c5.1-10.8-0.9-25.6,5.6-36.6c1.7-2.2,4.1-3,7.5-3.3c51.8-0.1,32.1-1.8,40.3,22.8c4.5,7.7,12.3,2.4,13-7.2c1.3-13.8,2.4-15,14.4-15.6
	c10,0,15.2-0.8,22.4-1.7c4.9,7.6,10.3,18.4,18.1,23.3c10.9,8.3,22.9,0.1,21.3,5.9c-0.7,56.8,17.1,103.5,57.1,141.9
	c2.3,3,6.3,3.4,5.4,8c0.2,3.5,0.2,12.6-3.7,7.7c-11.3-9.8-19.9-19.2-31.5-29.4c-4.7-1.7-7.6,11.4-10.4,15.5
	c-41.9,83.7-21.3,62.4-71.1,75.8c-18.4,2.5-42.4,12.9-45.8,6.2C653.3,1050.1,616.4,937.6,619.8,857.1z M767.2,935.5
	c-14.8,21.1,17.1,39.5,30.3,21.7c7.9-9.2,3.3-22.7-5.7-29.4C783.8,924.4,769.7,925.7,767.2,935.5z M755.8,1040.6
	c-2.2-22.7-31.6-21.1-33.4,0C724.7,1064.3,754.4,1063.3,755.8,1040.6z M693.9,930.5c-22.3,2.7-19.2,30.5,1.6,30.5
	C716.8,957.9,711.2,931.3,693.9,930.5z M743.2,992.3c0.9,16.4,22.6,11.1,20.4-3C761.2,977.9,742,980.1,743.2,992.3z M710,1046.3
	c-3.5-1.2-6,3.1-8.7,6.1c-6.1,5.6,1.6,13.7,7.6,15.4C723.1,1062.8,715.8,1052.7,710,1046.3z M653.8,922.7
	c-16.4,0.9-6.7,17.4,0.8,18.3C664.8,934.6,666.4,924.5,653.8,922.7z M750.4,907.5c-10.8,4.6-11.3,15-17.7,22.3
	C743.3,930.3,747.2,925.1,750.4,907.5z M780.6,1022.9c-0.4,0.7-0.9,1.5-1.3,2.2c8.8,13.5,10,14.2,20,10.8
	C792.7,1031.3,786.6,1027.1,780.6,1022.9z M775.4,1022.5c-0.1,0-0.2,0.1-0.6,0.2C774.8,1022.5,775.5,1023.5,775.4,1022.5z"/>
<path class="st10" d="M1012,1044.4c71.2-17,112.7-62.1,135.4-126.1c4.9-15.7,13.9-37.1,12.9-52c-8.2-28.3-23.2-54-35.3-82.3
	c-5-6-18,0-26.8,3c-20.5,6.9-39.9,13.5-61.4,15.4c-27.9,2.4-48.8,0.9-66.9-1.2c-41.3-4.8-88.4-14-91.2-24.8
	c-0.6-2.4,4.6-3.4,5.4-3.4c2.2,0.7,2.4,0.4,4.8,1c28.6,8.4,68.3,16.7,116.1,16.7c47,0,86-8.2,113.7-16.2c3.6-0.3,7-5.1,8.8-0.1
	c6.5,10.3,11.9,18.7,18.1,29.1c10.5,20.7,28.3,37.4,28.5,59.5C1175.2,962.3,1108.1,1038.2,1012,1044.4z"/>
<path class="st10" d="M880.6,1042.2c0-2.2,0.1-5.7,0.1-9c0.6,0.4,0.6,0.6,2.1,1.7c10.9,8.9,21.8,16.3,34,22.8
	c133.7,64.9,213.7-39.1,207.3-15.7c-0.6,2.7,2,5.1-0.8,7.2c-6.1,4.7-12.1,9.3-18.5,14.3c-4.4-8-12.3-2.8-19,0.3
	C1011.8,1105.4,944,1084.1,880.6,1042.2z"/>
<path class="st6" d="M836.3,802.7c0.5,15.9-7.5,6.2-17.5,6.6c-14,3.3-10.5,18-3.3,27.3c2.2,4.5,0.4,7.9,0.3,13.2
	c-0.2,5.8,0.9,10.7,4.9,15.9c-1.3,1.3-0.8,9.5-3.8,8.7c-7.7-3.5-12.1-8.7-15.1-15.1c-6.3-16.1-12.9-62.4,5.2-67.2
	C816.5,792,830.3,797.8,836.3,802.7z"/>
<path class="st6" d="M1172.9,798.1c8.9-1.5,23.7-9.1,32.4-4c13.7,15.5,5.1,53.3-0.5,66.8c-0.1,3.8-14.7,14.5-15.3,10.8
	c-0.4-4.4-5.2-8.5-0.9-11.9c4.6-4.5,5.3-4.1,3.4-9.6c-1.2-5.2-0.7-9.3,1-14.1c10.3-18,5.1-27.2-14.8-25.8
	C1168.1,812.9,1173.7,804.2,1172.9,798.1z"/>
<path class="st10" d="M1172.2,810.6c3.9-0.1,7.9-0.8,11.8-0.3c4.1,0.5,10.1,0.8,11.6,3.4c2.3,3.9,3.6,11.1,1.5,14.4
	c-5.6,8.5-7.6,16.3-4,26c0.6,1.6-4.3,5.2-6.7,7.9C1181.8,844.8,1177,827.7,1172.2,810.6z"/>
<path class="st10" d="M820.7,865.7c-7.2-8.2-3.9-17.5-4.4-26.7c-1.2-5.4-5.6-8.3-7.1-14c-1.8-7.2,3.7-16.5,11.6-15.7
	c4.8,0.8,8.2,2.4,13.2,2.5c1.9,0,1.1,0.5,0.5,3.1C829.7,832.6,827.7,849,820.7,865.7z"/>
<path class="st10" d="M978.4,1042.5c4.8,0.7,9.6,1.3,14.4,2C988,1043.8,983.2,1043.2,978.4,1042.5z"/>
<path class="st10" d="M965.1,1040c2.4,0.6,4.8,1.3,7.2,1.9C969.9,1041.3,967.5,1040.7,965.1,1040z"/>
<path class="st10" d="M836.3,802.7c-1.7-1.1-3.4-4.5,1.1-4.8C837.2,799,836.8,800.8,836.3,802.7z"/>
<path class="st11" d="M1104.8,1063.4c20.9-16.1,41-30.2,59.9-49.3c10.1,17.7,19.6,38.1,28.5,56.9c5.4,8.9,7.4,21.4,15.7,26.3
	c24.6,7.6,49.8,11.6,75.1,17.2c7.4-0.2-4.2,8.3-5,11.6c-24.9-0.2-50.6-4.7-75.3-2.1c-12.4,6.1-21.5,16.3-32.6,24.4
	c-114.2,91.8-97.7,68.6-91.4,84.2c4.1,3.7-8.3,3.8-10,4.9c-5,0.9-7-0.1-9.9-4.1c-11.6-19.8-20.9-35.7-31-53.7
	c-4.4-10.3-12.6-8.6-16.4,0.5c2.4,19.8,7.6,40.5,10.4,60.9c0,4.2-16.3,0.2-19.6,1.6c-5.7,0-11,0-16.8,0c-1.2-0.3-1.9,0.8-1.3-1.5
	c1.9-21,7.9-39.9,9-60.9c0-8.9-11.9-8.1-15.4-0.5c-14.1,23.2-31.1,59.5-37.6,58.2c-2.6-0.1-6.5-1.5-13.9-3.3
	c0.5-0.8,0.9-1.7,1.7-3.1c3.8-7.1,3.7-8.5-1.5-13.1c-38.7-28.6-69.5-54.6-105.3-82.1c-7.5-4.9-12.5-12.6-22.2-13.4
	c-21.5,0.3-43.1,1.9-64.7,2.8c-7.7,2.4-9.7-5.2-14.1-10.6c4.1-0.8,9.2-2,13.8-2.9c20.8-3.9,38.6-9.3,59.9-13
	c2.9-0.6,4.8-1.6,6.8-3.3c7.6-9,11.3-21.9,17.4-32.7c23.1-43.2,21-57.5,32.6-43c35.8,39,83.1,59.5,124.4,90.8c1,0.9,1.8,1.5,3,2.5
	c-0.5-0.1-1-0.2-2.7-0.5c-32.4-6.2-61.5-16.3-90.6-31.3c-40.2-20.7-28.4-26.3-39.7-0.9c-7.1,21.2-14.9,21.7-4,29.2
	c92,75.7,103.9,96.9,105.7,89.4c11.1-16.3,15.9-33.6,21.2-51.6c14.5-37.6,0.3-35.8,34-37.2c7.1,0.7,23.6,0.4,25.4,4.4
	c-2.8,9.1,4.9,17.2,7.4,25.9c7.3,20.1,12.7,40.6,24.7,59.6c2,3.1,8.6-6.7,10.7-7.3c22.5-21.3,45.5-42.2,69.7-61.9
	c9-8.5,20.3-15.1,27.4-24.5c2.1-4.9,0.8-7.6-1.4-12.2c-4.4-10.5-8.6-20.4-13.3-31.6c-37,24.5-76.4,41.5-119.7,50
	C1010.2,1119.7,1103.9,1065.3,1104.8,1063.4z M1003.9,1159.3c13.4,0.1,17-2.1,14.2-12.5c-3.1-9.1-4.3-18.3-11.8-20.2
	c-10.2-2.2-14.9,3.6-15.9,11.2c-1.3,4.1-4.9,12.7-4.2,14.8C986.1,1156.9,994.4,1158.4,1003.9,1159.3z"/>
<path class="st1" d="M729,1125.9c76.1-3.1,72.2-7.9,91.9,9.3c30.1,23.5,59.2,46.5,89,70.1c13,10.2,12.6,6.9,2.8,17.5
	c-3,2-3.8,7-7.5,6.2c-8.4-2.6-16.7-4.9-25.3-7.5C822.8,1204,762.8,1164.1,729,1125.9z"/>
<path class="st1" d="M1091.8,1210.6c135.1-104.6,96.7-87.4,151.7-86.4c11.9,0.6,23.5,1.2,35.4,1.8c-1.1,1.5-2.5,4-4.1,5.6
	c-39.9,38.4-85.9,67.7-137.3,87.3C1116.9,1226.8,1100.4,1234.7,1091.8,1210.6z"/>
<path class="st3" d="M1023.1,1242.5c-3.5-28.6-14.4-63.2-8.1-67.2C1038.7,1257.1,1040.3,1240.7,1023.1,1242.5z"/>
<path class="st5" d="M1091.8,1210.6c2,8.7,8.6,13.1,15.7,17.1c-8.9,2.3-17.8,4.6-26.7,6.9c-2-3.4-4-6.8-6.6-11.2
	C1080.1,1219,1086,1214.8,1091.8,1210.6z"/>
<path class="st3" d="M994.2,1185c-12.2,62.8-4.9,58.5-17,57c-8.1-0.8,0.5-14.8,2.5-22.2C985.3,1207.8,986.3,1195,994.2,1185z"/>
<path class="st5" d="M906.6,1229.4c6.5-4.8,12.8-19.9,18.3-13c8.8,6.8,8.1,7.3,2.2,18.2C920.9,1233,913.2,1231.1,906.6,1229.4z"/>
<path class="st9" d="M621.7,810.7c-0.5,3.2-0.9,6.5-1.4,9.7C620.7,817.2,621.2,814,621.7,810.7z"/>
<path class="st9" d="M1389.3,841.3L1389.3,841.3z"/>
<path class="st11" d="M924.5,979.8c-2.9-9.7,9.1-0.4,13.3,1.4c9.9,5,19.3,8.7,29.3,11.6c40.9,12,81.5,5.9,122.7-18.6
	c-5.7,20.7-21.2,32-41.2,41C1006.5,1036.7,947.9,1021.3,924.5,979.8z"/>
<path class="st11" d="M1108,949.2c-0.8,21.4-34,17.5-49.4,21.9c-10.3,0.3-19.3,10.9-30.1,8.6c-6.6-1.3-11.3-9.1-11.2-16.6
	c0.9-14.8,22.8-16.2,34.8-16C1077,948.2,1087.9,959.9,1108,949.2z"/>
<path class="st11" d="M907.4,946.5c9.9,13.9,23,6.3,36,3.4c14.2-3.4,27.1-4.1,41.5-0.2c24.4,6.7,9.2,41.2-11.5,27.5
	C942.3,959.7,908.5,977.1,907.4,946.5z"/>
<path class="st11" d="M1028.2,873.1c2.5-26.1,13.5,13.4,17.6,20.1c5.4,12.6,13.4,26,4.8,38.8c-19.5,30.3-60.5,1.8-50.3-0.1
	c23.6-1,45.1,1.9,33.3-26.8C1031,894.4,1030.1,883.8,1028.2,873.1z"/>
<path class="st11" d="M1115.5,858.5c-25.7-12-51.4-11.8-76.6-1.2C1045.1,820.6,1108.6,824.9,1115.5,858.5z"/>
<path class="st11" d="M968.6,857.8c-24.9-12.4-50.1-10.1-75.7-0.2c7.7-27.8,44.6-34.1,71.2-13.4
	C965.1,848.9,973.3,851.2,968.6,857.8z"/>
<path class="st10" d="M932.4,992.6c41.8,39.7,86.7,41.2,134.1,13.4c-14.4,9.4-28.6,21.2-46.5,23.8
	C988.5,1034.8,944,1023.4,932.4,992.6z"/>
<path class="st10" d="M968.6,857.8c4.8-6.6-3.5-8.9-4.5-13.5c12,2.9,24.9,18.1,25.5,30.4c0.7,15.2,0.9,30.4,1.4,46.6
	c-7-8.8-10.5-18.3-10.8-29.1c-0.2-5.5,0.9-11.6-0.9-16.5C976.9,869.3,972.2,863.7,968.6,857.8z"/>
<path class="st10" d="M1028.2,873.1c5.8,53,27.2,55.8-29.3,59.6c0.6,3.1-1.9-1.4-3.2-2.8c-4.8-4.4,4-1.5,6.9-2.2
	c7.3,0,16.6,0.7,21.2-4.8c3.8-4.3,3.2-11,3-17.8C1026.6,894.1,1027.7,884.1,1028.2,873.1z"/>
<path class="st10" d="M924.5,979.8c2.5,3.9,5,7.8,7.4,11.8C929.4,987.7,926.9,983.7,924.5,979.8z"/>
<path class="st10" d="M1035.4,867.3c-3.1-2.2-6.9-2.5-5-7.9C1033.9,857.3,1033.9,864.3,1035.4,867.3z"/>
<path class="st10" d="M1054.3,923c0-2.8,0.1-5.7,0.1-8.5C1054.3,917.3,1054.3,920.1,1054.3,923z"/>
<path class="st10" d="M925.8,974.7c-2.3,3.3-2.4,2.5-4-1.8C922.6,973.3,923.9,973.9,925.8,974.7z"/>
<path class="st10" d="M1038.6,875.3c-0.7-1.3-1.4-2.7-2.1-4C1037.2,872.6,1037.8,874,1038.6,875.3z"/>
<path class="st10" d="M1046.5,894.5c-0.8-1.3-1.5-2.6-2.3-4C1045,891.9,1045.8,893.2,1046.5,894.5z"/>
<path class="st12" d="M1277.6,634c1.6,29.4-43.6,29.5-45.7,1.5C1231,603.2,1276.9,602.9,1277.6,634z M1247,649.5
	c5-5.4,6.2-6.7,1-11.3C1241.8,642.4,1242.5,643,1247,649.5z"/>
<path class="st12" d="M1325,729c9.6,21.4-23.6,34.7-36.1,16.9c-13.2-19.9,2.3-29.7,20.4-27.6C1315.8,719.9,1318.1,725.8,1325,729z"
	/>
<path class="st12" d="M1291.7,802.7c22,2.3,16.5,28.5-0.3,30C1269,830.5,1270.7,803.1,1291.7,802.7z"/>
<path class="st12" d="M1233.3,696.9c19.1-1,20.5,24.4,5.2,28.4C1215.6,730.4,1210.3,697.2,1233.3,696.9z"/>
<path class="st9" d="M1341.8,796.3c-12.9,0.6-14.9-15.9-4.5-21.5c5.6-2.7,13.1,5.8,15.3,10.9C1353.7,790,1347.1,796,1341.8,796.3z"
	/>
<path class="st9" d="M1306.4,685.9c-4.2,19.6-24.7,9.1-20-5.2C1291.1,670.2,1307.6,674.4,1306.4,685.9z"/>
<path class="st9" d="M1223.3,583.3c1.2,15.8-17,17.2-19.2,4.7C1200.9,572.7,1222.9,572.6,1223.3,583.3z"/>
<path class="st0" d="M1325,729c-17.1-12-13-13.8-34.8-8.1C1300.3,705.6,1321.9,712,1325,729z"/>
<path class="st9" d="M1208.6,667.7c-2.2,14.9-11.4,7.4-17.2,1.1C1200.4,658.5,1200.4,659.4,1208.6,667.7z"/>
<path class="st9" d="M1246.7,754.6c5,6.8,11.5,9.3,5,15.3c-4.1,4.8-10-1.4-10.4-4.9C1241.3,762.7,1244,759.7,1246.7,754.6z"/>
<path class="st6" d="M1211.6,768.1c6-6.2,4-18.3,15.3-20.4C1222.3,754.9,1224.6,767,1211.6,768.1z"/>
<path class="st6" d="M1299.3,654c-10.5,13.6-14.8,16.8-23.1,13.2c7.5-5.3,14.6-10.4,21.8-15.5C1298.3,652.5,1298.8,653.3,1299.3,654
	z"/>
<path class="st0" d="M1290.3,720.9c-0.8,0.5-1.6,1.1-2.4,1.6C1288.8,722,1289.5,721.5,1290.3,720.9z"/>
<path class="st12" d="M791.3,650.5c-6.6,31.6-49.9,18.2-43.3-9.5C754.3,617.9,792.5,627.2,791.3,650.5z M764.2,644.4
	c2.3-3.5,5.6-4.4,2.9-7.2C760.8,631.3,757.2,639.9,764.2,644.4z"/>
<path class="st12" d="M679.1,720.9c13.4-17.3,49.9-4,36.4,18.5C700.8,762.6,666.8,744,679.1,720.9z M710.3,727.7
	c-5.5-4.3-6.7-6.5-11.3-1.5C702.8,730.8,703.6,731.7,710.3,727.7z"/>
<path class="st12" d="M695.1,805.7c27.4,2,22.1,34.5-0.1,35.3C670.8,839.1,669.9,806.4,695.1,805.7z"/>
<path class="st12" d="M799,729.1c23.8,2.2,18.2,29-0.1,30.2C778.4,756.4,778.6,730.3,799,729.1z"/>
<path class="st9" d="M663,777.1c17.6,1.4,11.6,21.2-1.2,20.7C648.6,794.5,649,777.2,663,777.1z"/>
<path class="st9" d="M728.3,689.1c-12.1,1-13.8-16.2-3.2-20.3C736.9,668.3,745.4,687.9,728.3,689.1z"/>
<path class="st9" d="M804,698.2c-0.8-13.9,17.9-12.9,20.4-1.7C825.3,710.1,804.5,712.9,804,698.2z"/>
<path class="st2" d="M791.3,650.5c-2-21.8-18.4-25.2-36.5-20.5C767.8,612.4,799.2,629.6,791.3,650.5z"/>
<path class="st6" d="M723.3,646.1c-8.2,4.6-11,17.7-23.5,15.3c-0.5-0.9-1.1-1.8-1.7-2.7c7.9-4.9,15.9-9.9,23.8-14.8
	C722.3,644.6,722.8,645.4,723.3,646.1z"/>
<path class="st9" d="M752,780.1c-7.6,5.6-11.3,9.4-16,0.6c-1.6-2.6,2.7-6.7,5.6-7.8C744.6,772.3,747.3,776.5,752,780.1z"/>
<path class="st6" d="M753.4,782c7.4-4.9,2.7-18.2,14.4-20.8C766,777.3,763.8,780.5,753.4,782z"/>
<path class="st0" d="M713,717.7c-18.4-7.2-20.8-6.3-33.6,1.7C684.4,705.5,707,704.2,713,717.7z"/>
<path class="st9" d="M780.5,600.8c-6.3-5.8-4.9-7.9,0.9-10.3C787.8,593.5,785.5,596.8,780.5,600.8z"/>
<path class="st0" d="M715.8,721.1c-1-1.1-1.9-2.3-2.9-3.4C713.9,718.8,714.9,720,715.8,721.1z"/>
<path class="st0" d="M679.1,720.9c-0.4,0.6-0.8,1.2-1.2,1.8C678.3,722.1,678.7,721.5,679.1,720.9z"/>
<path class="st12" d="M1251.3,1005.8c25.8,1.4,23,37.8,0.1,38.4C1224.6,1043.7,1224.6,1005.6,1251.3,1005.8z"/>
<path class="st12" d="M1272.6,922.6c8,24.5-23.8,34.9-34.7,15.2c-3.5-6.1-2.3-16,3.7-20c5.4-0.3,10.4-4.4,16-3.9
	C1263.5,915.2,1267.4,920.1,1272.6,922.6z"/>
<path class="st12" d="M1310,955c1.9-23.2,29.9-17.7,29,2C1338.1,975.1,1310.1,971.5,1310,955z"/>
<path class="st8" d="M1286.8,914.7c-5.2,0.7-8.2-2.1-8.9-6.6C1275.6,878.6,1317.5,911.7,1286.8,914.7z"/>
<path class="st8" d="M1223.2,943c1.2,11.3-17.5,10.9-16.1-0.6C1206.7,930.1,1224.9,931.5,1223.2,943z"/>
<path class="st8" d="M1298.6,1020.8c3.1,3.5,7.7,7.3,7.2,8.8c-0.7,1.5-5.8,9.2-8,7.3C1287.8,1027.9,1290,1029.7,1298.6,1020.8z"/>
<path class="st8" d="M1308.5,928.6c10.2-1.4,13-16.2,25.8-13.5C1329.5,927.2,1319.5,932.7,1308.5,928.6z"/>
<path class="st6" d="M1203.1,987.6c8.4,1.5,16.5,3,24.5,4.5C1214.8,998.8,1205.6,996.5,1203.1,987.6z"/>
<path class="st2" d="M1272.6,922.6c-18.8-13.1-15.3-8.3-31-4.8C1241.7,905.2,1272.2,907.8,1272.6,922.6z"/>
<path class="st2" d="M1239,920.7c-0.9,1.7-1.9,3.4-2.8,5.1C1237.1,924.1,1238.1,922.4,1239,920.7z"/>
<path class="st6" d="M979,1113.4c-9.1-11.2-121.5-74.7-95.9-69.6c31.6,20.9,65.5,36.9,102.4,41.3c69.4,8.4,99.8-28.9,115.9-25.6
	c2.9,4.2,3.3,3.9,2,4.7c-0.9-3.8,0-2.3,1.3-0.8c-5.5,3.5-9.7,6.2-14.3,9.1c-20.3,13.7-41.3,24.5-60.3,39.5c-1.9,1.9-1.1,1.7-4.5,0.9
	C1009.7,1109.7,993.9,1109.1,979,1113.4z"/>
<path class="st12" d="M801.7,941.7c1.5,31.1-39,28.2-38.5,2.6c2-5.5,2.9-9.8,9.6-10.5C785.7,929.7,796,928.5,801.7,941.7z"/>
<path class="st12" d="M755.8,1040.6c-2.5,25.4-32.3,21-33.4,0C725.2,1017.3,754.6,1020,755.8,1040.6z"/>
<path class="st12" d="M693.9,930.5c19.4,1.7,20.8,28.1,1.6,30.5C672,960.3,674.3,931.8,693.9,930.5z"/>
<path class="st8" d="M743.2,992.3c-0.8-12.7,16.9-13.6,20.2-4C767,1003.8,743.7,1008.5,743.2,992.3z"/>
<path class="st8" d="M710,1046.3c8.5,8.9,10.6,17.2-1,21.6C691.2,1061.8,702.6,1045.9,710,1046.3z"/>
<path class="st8" d="M653.8,922.7c14.9,2.4,8.6,13.7,0,19.1C644.4,934.9,639.2,924.5,653.8,922.7z"/>
<path class="st8" d="M750.4,907.5c-3.2,17.6-7.1,22.8-17.7,22.3C739.1,922.5,739.7,912.1,750.4,907.5z"/>
<path class="st6" d="M780.6,1022.9c6,4.2,12.1,8.4,18.7,13c-10,3.5-11.2,2.8-20-10.8C779.7,1024.4,780.1,1023.7,780.6,1022.9z"/>
<path class="st2" d="M797.3,933.8c-3.9-1.1-7.9-3.3-11.7-2.9c-6.2,0.6-12.3,3-18.5,4.5c2.1-7.8,9-8.7,15.1-9.2
	C788.2,925.8,794.4,927.1,797.3,933.8z"/>
<path class="st2" d="M801.7,941.7c-0.8-1.1-1.5-2.3-2.3-3.4C800.2,939.5,801,940.6,801.7,941.7z"/>
<path class="st2" d="M767.2,935.5c-0.5,1-1.1,2.1-1.6,3.1C766.1,937.6,766.7,936.5,767.2,935.5z"/>
<path class="st6" d="M775.4,1022.5c0-0.1,0.2,0.8-0.6,0.2C774.8,1022.7,774.9,1022.6,775.4,1022.5z"/>
<path class="st4" d="M1028.6,1113.5c102.3-19.1,125-63.3,127.3-45.3c4.5,14.3,17,31.9,11.5,34.5c-29.6,25.2-60.9,45.7-91.7,68.3
	c-5.5,2.4-13.1,13.7-15.7,5.9C1047.8,1156.6,1024.1,1130.5,1028.6,1113.5z"/>
<path class="st4" d="M979,1113.4c-3.6,17.1-9,34.5-20.7,48.6c-4.2,4.9-7,15.1-13.1,16.1c-3.5-0.2-5.2-2.1-9-4.8
	c-26.8-19.7-52.3-37.7-78.7-57.4c-6.1-6.3-16.3-11.1-18.6-17.9c4.6-11.1,9.1-21.9,14.1-34.1c0.5-3.3,4.1,1.6,6.5,2.4
	C897.3,1090.5,936.2,1105.5,979,1113.4z"/>
<path class="st5" d="M838.3,1099.3c23.3,21.7,50.9,39.3,76.5,58.4c8.9,5.4,25.6,21.6,31.7,20.1c5.1-1.4,26.5-41.8,22.4-30.3
	c-5.5,19-10.8,37.1-22.9,53.9c-3.7-3.4-8.5-7.9-12.5-11.6c-27.2-25.8-54.9-49-83.3-73.1C845.9,1111.7,831.4,1105.5,838.3,1099.3z"/>
<path class="st5" d="M1036.9,1143.3c34.9,46,16.5,41.5,45.9,22.8c27.4-20.2,56.2-39.1,82.4-61.4c1.5-1.3,2.8-2.3,4.4-3.7
	c-0.4,1-0.6,2.7-1.1,4.5c-7.2,11.9-22.3,19.4-32.5,29.6c-24.8,20-47.6,42.3-70.7,62.9c-2.6,1.4-3.8,5.9-5.8,1.1
	C1048.7,1180.8,1043.3,1162.4,1036.9,1143.3z"/>
<path class="st7" d="M1003.9,1159.3c-13-1.7-21-1.8-16.5-13.1c5.1-14.2,4.6-21.8,18.9-19.6c7.7,2.2,8,9.8,11.5,19.3
	C1021.1,1157.3,1018,1159.3,1003.9,1159.3z"/>
<path class="st7" d="M1247,649.5c-4.7-6.5-4.9-7.4,1-11.3C1253.2,643.1,1252.2,643.8,1247,649.5z"/>
<path class="st9" d="M764.2,644.4c-4.2-4.1-6.4-7.4-0.5-9.3C768.9,637.2,769.2,639.5,764.2,644.4z"/>
<path class="st7" d="M710.3,727.7c-6.5,3.8-7.3,3.5-11.3-1.5C703.6,721.2,704.5,723.2,710.3,727.7z"/>
</svg>
